<svg width="512" height="512" version="1.1" viewBox="0 0 135.47 135.47" xmlns="http://www.w3.org/2000/svg" xmlns:cc="http://creativecommons.org/ns#" xmlns:dc="http://purl.org/dc/elements/1.1/" xmlns:rdf="http://www.w3.org/1999/02/22-rdf-syntax-ns#">
 <title>Backwesen LOGO</title>
 <defs>
  <filter id="l3d_av" x="-.31278" y="-.15022" width="1.6256" height="1.3004" color-interpolation-filters="sRGB">
   <feGaussianBlur stdDeviation="0.23694355"/>
  </filter>
  <filter id="l3d_au" x="-.12313" y="-.1096" width="1.2463" height="1.2192" color-interpolation-filters="sRGB">
   <feGaussianBlur stdDeviation="0.67346864"/>
  </filter>
  <filter id="l3d_at" x="-.24626" y="-.1096" width="1.4925" height="1.2192" color-interpolation-filters="sRGB">
   <feGaussianBlur stdDeviation="0.23694355"/>
  </filter>
  <filter id="l3d_as" x="-.24305" y="-.1096" width="1.4861" height="1.2192" color-interpolation-filters="sRGB">
   <feGaussianBlur stdDeviation="0.23694355"/>
  </filter>
  <filter id="l3d_ar" x="-.34947" y="-.15022" width="1.6989" height="1.3004" color-interpolation-filters="sRGB">
   <feGaussianBlur stdDeviation="0.23694355"/>
  </filter>
  <filter id="l3d_aq" x="-.33768" y="-.15022" width="1.6754" height="1.3004" color-interpolation-filters="sRGB">
   <feGaussianBlur stdDeviation="0.23694355"/>
  </filter>
  <filter id="l3d_ap" x="-.12313" y="-.1096" width="1.2463" height="1.2192" color-interpolation-filters="sRGB">
   <feGaussianBlur stdDeviation="0.67346864"/>
  </filter>
  <filter id="l3d_ao" x="-.12313" y="-.1096" width="1.2463" height="1.2192" color-interpolation-filters="sRGB">
   <feGaussianBlur stdDeviation="0.67346864"/>
  </filter>
  <filter id="l3d_an" x="-.12313" y="-.1096" width="1.2463" height="1.2192" color-interpolation-filters="sRGB">
   <feGaussianBlur stdDeviation="0.67346864"/>
  </filter>
  <filter id="l3d_am" x="-.24626" y="-.1096" width="1.4925" height="1.2192" color-interpolation-filters="sRGB">
   <feGaussianBlur stdDeviation="0.23694355"/>
  </filter>
  <filter id="l3d_al" x="-.24001" y="-.1096" width="1.48" height="1.2192" color-interpolation-filters="sRGB">
   <feGaussianBlur stdDeviation="0.23694355"/>
  </filter>
  <filter id="l3d_ak" x="-.34948" y="-.15022" width="1.699" height="1.3004" color-interpolation-filters="sRGB">
   <feGaussianBlur stdDeviation="0.23694355"/>
  </filter>
  <filter id="l3d_aj" x="-.33922" y="-.15022" width="1.6784" height="1.3004" color-interpolation-filters="sRGB">
   <feGaussianBlur stdDeviation="0.23694355"/>
  </filter>
  <filter id="l3d_ai" x="-.12313" y="-.1096" width="1.2463" height="1.2192" color-interpolation-filters="sRGB">
   <feGaussianBlur stdDeviation="0.67346864"/>
  </filter>
  <filter id="l3d_ah" x="-.24626" y="-.1096" width="1.4925" height="1.2192" color-interpolation-filters="sRGB">
   <feGaussianBlur stdDeviation="0.23694355"/>
  </filter>
  <filter id="l3d_ag" x="-.23111" y="-.1096" width="1.4622" height="1.2192" color-interpolation-filters="sRGB">
   <feGaussianBlur stdDeviation="0.23694355"/>
  </filter>
  <filter id="l3d_af" x="-.34948" y="-.15022" width="1.699" height="1.3004" color-interpolation-filters="sRGB">
   <feGaussianBlur stdDeviation="0.23694355"/>
  </filter>
  <filter id="l3d_ae" x="-.31767" y="-.15022" width="1.6353" height="1.3004" color-interpolation-filters="sRGB">
   <feGaussianBlur stdDeviation="0.23694355"/>
  </filter>
  <filter id="l3d_ad" x="-.12313" y="-.1096" width="1.2463" height="1.2192" color-interpolation-filters="sRGB">
   <feGaussianBlur stdDeviation="0.67346864"/>
  </filter>
  <filter id="l3d_ac" x="-.24626" y="-.1096" width="1.4925" height="1.2192" color-interpolation-filters="sRGB">
   <feGaussianBlur stdDeviation="0.23694355"/>
  </filter>
  <filter id="l3d_ab" x="-.23556" y="-.1096" width="1.4711" height="1.2192" color-interpolation-filters="sRGB">
   <feGaussianBlur stdDeviation="0.23694355"/>
  </filter>
  <filter id="l3d_aa" x="-.34948" y="-.15022" width="1.699" height="1.3004" color-interpolation-filters="sRGB">
   <feGaussianBlur stdDeviation="0.23694355"/>
  </filter>
  <filter id="l3d_z" x="-.32503" y="-.15022" width="1.6501" height="1.3004" color-interpolation-filters="sRGB">
   <feGaussianBlur stdDeviation="0.23694355"/>
  </filter>
  <filter id="l3d_y" x="-.12313" y="-.1096" width="1.2463" height="1.2192" color-interpolation-filters="sRGB">
   <feGaussianBlur stdDeviation="0.67346864"/>
  </filter>
  <filter id="l3d_x" x="-.24626" y="-.1096" width="1.4925" height="1.2192" color-interpolation-filters="sRGB">
   <feGaussianBlur stdDeviation="0.23694355"/>
  </filter>
  <filter id="l3d_w" x="-.24236" y="-.1096" width="1.4847" height="1.2192" color-interpolation-filters="sRGB">
   <feGaussianBlur stdDeviation="0.23694355"/>
  </filter>
  <filter id="l3d_v" x="-.34948" y="-.15022" width="1.699" height="1.3004" color-interpolation-filters="sRGB">
   <feGaussianBlur stdDeviation="0.23694355"/>
  </filter>
  <filter id="l3d_u" x="-.33025" y="-.15022" width="1.6605" height="1.3004" color-interpolation-filters="sRGB">
   <feGaussianBlur stdDeviation="0.23694355"/>
  </filter>
  <filter id="l3d_t" x="-.24626" y="-.1096" width="1.4925" height="1.2192" color-interpolation-filters="sRGB">
   <feGaussianBlur stdDeviation="0.23694355"/>
  </filter>
  <filter id="l3d_s" x="-.23857" y="-.1096" width="1.4771" height="1.2192" color-interpolation-filters="sRGB">
   <feGaussianBlur stdDeviation="0.23694355"/>
  </filter>
  <filter id="l3d_r" x="-.17474" y="-.15022" width="1.3495" height="1.3004" color-interpolation-filters="sRGB">
   <feGaussianBlur stdDeviation="0.23694355"/>
  </filter>
  <filter id="l3d_q" x="-.24626" y="-.10961" width="1.4925" height="1.2192" color-interpolation-filters="sRGB">
   <feGaussianBlur stdDeviation="0.23694355"/>
  </filter>
  <filter id="l3d_p" x="-.23981" y="-.10961" width="1.4796" height="1.2192" color-interpolation-filters="sRGB">
   <feGaussianBlur stdDeviation="0.23694355"/>
  </filter>
  <filter id="l3d_o" x="-.34947" y="-.15022" width="1.6989" height="1.3004" color-interpolation-filters="sRGB">
   <feGaussianBlur stdDeviation="0.23694355"/>
  </filter>
  <filter id="l3d_n" x="-.32373" y="-.15022" width="1.6475" height="1.3004" color-interpolation-filters="sRGB">
   <feGaussianBlur stdDeviation="0.23694355"/>
  </filter>
  <filter id="l3d_m" x="-.067227" y="-.062898" width="1.1345" height="1.1258" color-interpolation-filters="sRGB">
   <feGaussianBlur stdDeviation="0.23694355"/>
  </filter>
  <filter id="l3d_l" x="-.84592" y="-.32792" width="2.6918" height="1.6558" color-interpolation-filters="sRGB">
   <feGaussianBlur stdDeviation="0.23694355"/>
  </filter>
  <filter id="l3d_k" x="-.49272" y="-.2358" width="1.9854" height="1.4716" color-interpolation-filters="sRGB">
   <feGaussianBlur stdDeviation="0.23694355"/>
  </filter>
  <filter id="l3d_j" x="-.22912" y="-.10583" width="1.4582" height="1.2117" color-interpolation-filters="sRGB">
   <feGaussianBlur stdDeviation="0.23694355"/>
  </filter>
  <filter id="l3d_i" x="-.12313" y="-.1096" width="1.2463" height="1.2192" color-interpolation-filters="sRGB">
   <feGaussianBlur stdDeviation="0.67346864"/>
  </filter>
  <filter id="l3d_h" x="-.24626" y="-.1096" width="1.4925" height="1.2192" color-interpolation-filters="sRGB">
   <feGaussianBlur stdDeviation="0.23694355"/>
  </filter>
  <filter id="l3d_g" x="-.23796" y="-.1096" width="1.4759" height="1.2192" color-interpolation-filters="sRGB">
   <feGaussianBlur stdDeviation="0.23694355"/>
  </filter>
  <filter id="l3d_f" x="-.34948" y="-.15022" width="1.699" height="1.3004" color-interpolation-filters="sRGB">
   <feGaussianBlur stdDeviation="0.23694355"/>
  </filter>
  <filter id="l3d_e" x="-.30959" y="-.15022" width="1.6192" height="1.3004" color-interpolation-filters="sRGB">
   <feGaussianBlur stdDeviation="0.23694355"/>
  </filter>
  <filter id="l3d_d" x="-.623" y="-.29012" width="2.246" height="1.5802" color-interpolation-filters="sRGB">
   <feGaussianBlur stdDeviation="0.23694355"/>
  </filter>
  <filter id="l3d_c" x="-.18097" y="-.17476" width="1.3619" height="1.3495" color-interpolation-filters="sRGB">
   <feGaussianBlur stdDeviation="0.23694355"/>
  </filter>
  <filter id="l3d_b" x="-.66198" y="-.98986" width="2.324" height="2.9797" color-interpolation-filters="sRGB">
   <feGaussianBlur stdDeviation="0.23694355"/>
  </filter>
  <filter id="l3d_a" x="-.053633" y="-.041958" width="1.1073" height="1.0839" color-interpolation-filters="sRGB">
   <feGaussianBlur stdDeviation="0.23694355"/>
  </filter>
  <filter id="l3d_aw" x="-.013115" y="-.013861" width="1.0237" height="1.0277" color-interpolation-filters="sRGB">
   <feGaussianBlur stdDeviation="0.30095959"/>
  </filter>
 </defs>
 <metadata>
  <rdf:RDF>
   <cc:Work rdf:about="">
    <dc:format>image/svg+xml</dc:format>
    <dc:type rdf:resource="http://purl.org/dc/dcmitype/StillImage"/>
    <dc:title>Backwesen LOGO</dc:title>
    <dc:creator>
     <cc:Agent>
      <dc:title>L3D &lt;l3d@c3woc.de&gt;</dc:title>
     </cc:Agent>
    </dc:creator>
    <cc:license rdf:resource="http://creativecommons.org/licenses/by-nc-sa/4.0/"/>
    <dc:publisher>
     <cc:Agent>
      <dc:title>backwesen.de</dc:title>
     </cc:Agent>
    </dc:publisher>
   </cc:Work>
   <cc:License rdf:about="http://creativecommons.org/licenses/by-nc-sa/4.0/">
    <cc:permits rdf:resource="http://creativecommons.org/ns#Reproduction"/>
    <cc:permits rdf:resource="http://creativecommons.org/ns#Distribution"/>
    <cc:requires rdf:resource="http://creativecommons.org/ns#Notice"/>
    <cc:requires rdf:resource="http://creativecommons.org/ns#Attribution"/>
    <cc:prohibits rdf:resource="http://creativecommons.org/ns#CommercialUse"/>
    <cc:permits rdf:resource="http://creativecommons.org/ns#DerivativeWorks"/>
    <cc:requires rdf:resource="http://creativecommons.org/ns#ShareAlike"/>
   </cc:License>
  </rdf:RDF>
 </metadata>
 <g transform="translate(0 -161.53)">
  <path d="m27.71 195.15c-9.5466-0.0272-22.339 6.798-21.632 23.904 1.1055 26.729 25.457 29.208 35.192 29.423 1.068 5.0136 12.522 22.306 21.002 23.217h37.153c22.278-1.6678 38.961-75.757 26.593-76.038-46.782 2.4769-49.995 2.1384-88.6 0-2.4951-0.0266-5.9723-0.49474-9.7079-0.5054zm2.4913 9.4589c1.3514 13.693 3.5558 21.704 8.0182 33.943-11.383-1.5047-21.07-5.2244-22.852-19.11-0.95096-7.4112 2.3904-15.168 14.833-14.834z" fill="#efbb2e" stroke="#cf7816"/>
 </g>
 <g>
  <g transform="translate(.26465 .26458)" fill="#f60" filter="url(#l3d_aw)" style="mix-blend-mode:normal">
   <g fill="#f60">
    <g transform="matrix(1.2238 0 0 1.2238 -39.192 7.1363)">
     <g transform="matrix(.35183 0 0 .35183 70.25 33.179)">
      <path d="m134.36 123.95c-3.731-2.5166-5.692-6.5854-6.0562-12.566-0.2714-4.4565 0.17411-7.8149 2.0909-15.762 1.7119-7.0974 1.342-8.5764 2.0498-12.723l0.0948-3.6556-0.52979-0.9734c-0.29138-0.53537-0.58057-0.96783-0.64262-0.96101-0.19229 0.02109-2.5263 2.7901-3.9444 4.6794-3.0922 4.1199-4.8471 8.1836-5.1667 11.964l-0.12365 1.4627-0.99779 0.20714c-2.0101 0.41729-2.0581 0.40357-2.3416-0.66865-0.37877-1.4329-0.19989-5.0119 0.32914-6.5856 0.71748-2.1343 2.3278-5.1238 4.6296-8.5945 2.5553-3.853 4.2212-6.8957 4.8346-8.8304 0.50206-1.5835 0.56243-1.6202 2.9445-1.7893l1.6532-0.11735 0.59107 1.5053c1.4077 3.5851 1.9258 6.1062 2.0944 10.191 0.19257 4.6663-0.29965 8.8321-2.2443 18.993-1.6855 8.8071-1.6648 8.6057-1.1638 11.345 0.86521 4.7304 2.0549 7.4706 4.2871 9.8743 0.53793 0.57927 0.55457 0.65109 0.42031 1.8134-0.0769 0.66566-0.21295 1.4036-0.30235 1.6398-0.25576 0.67582-1.05 0.53361-2.5064-0.44876zm-17.112-18.924-0.83478-0.0742 0.10262-0.76509c0.15745-1.1739 0.91172-2.1497 2.1177-2.7397 0.93541-0.45767 1.3702-0.53033 4.0661-0.67965 1.6603-0.092 3.3408-0.17047 3.7345-0.17446l0.71583-7e-3v1.8098c0 2.1392 0.54767 1.8426-4.4027 2.384-3.4811 0.38068-3.8202 0.39589-5.4993 0.24662zm17.232-2.4443c-0.15787-0.62902 0.0445-1.8797 0.42254-2.6107 0.45251-0.87506 1.7316-2.1835 3.3189-3.3951 1.6359-1.2487 3.0555-2.7055 3.5294-3.622 1.0205-1.9733 1.7117-8.5001 1.2595-11.893-0.61592-4.621-3.0073-9.7654-6.1255-13.177-0.52474-0.57417-0.95409-1.1287-0.95409-1.2322 0-0.10357 0.91613-1.0364 2.0358-2.073 1.4353-1.3287 2.0627-1.8002 2.1269-1.5984 0.25263 0.79463 3.4382 6.7374 4.1538 7.749 1.5483 2.1887 3.6032 3.7486 5.6215 4.2673 0.47069 0.12098 1.1797 0.34443 1.5755 0.49657 1.0419 0.40048 2.4726 0.3416 4.8745-0.20061 3.5933-0.81114 4.7372-0.58063 5.5608 1.1206 0.68291 1.4107 0.54603 1.6596-1.2424 2.2596-3.1361 1.0521-7.2684 1.0976-11.41 0.12544-1.2758-0.29947-1.7422-0.34246-1.9089-0.176-0.2504 0.25007-0.26393 1.8953-0.0378 4.5922 0.12687 1.5129 0.0834 2.1718-0.26257 3.9757-1.0515 5.4835-3.1062 9.4966-6.4767 12.65-1.3295 1.2439-1.8128 1.572-2.6864 1.8236-0.58584 0.16877-1.5574 0.55384-2.1589 0.85571l-1.0938 0.54888zm-10.811-33.683c-0.28723-0.0865-0.82411-0.3438-1.193-0.57183-0.55041-0.34017-0.67079-0.52895-0.67079-1.0519v-0.63734l1.2885-0.12615c3.2188-0.31511 5.8178-1.378 8.3777-3.4262 2.7309-2.185 5.0963-5.3345 8.9454-11.911 1.2388-2.1164 2.0202-3.2636 2.226-3.2679 0.38586-8e-3 1.2624 0.99593 1.4208 1.6274 0.25542 1.0177-1.2113 5.9186-2.6113 8.7251-2.7041 5.421-7.2433 9.1101-12.871 10.46-1.5657 0.37566-3.9688 0.46322-4.9127 0.179zm-8.0677-5.8049c-1.2437-0.30737-1.9916-0.71058-2.8908-1.5586l-0.73273-0.69105 0.44678-0.36178c0.69168-0.56009 2.1858-0.93524 4.8947-1.2289 1.3648-0.14799 2.8681-0.39459 3.3405-0.54801 5.1921-1.686 8.4297-3.7612 12.626-8.0928 2.0538-2.1198 6.2812-7.363 6.5942-8.1787 0.0635-0.16538 0.407-0.2603 0.94209-0.2603 0.98475 0 0.98311-0.1135 0.0398 2.7617-2.13 6.492-6.525 11.865-12.804 15.653-1.412 0.85184-1.6794 0.93361-5.9928 1.8327-4.8536 1.0116-5.0218 1.0291-6.4641 0.67271zm-75.885-12.36c2.8921-4.8343 6.4086-7.6301 8.2427-8.697 1.3881-0.80752 4.5539-2.2879 6.7365-2.9874 5.1062-1.6366 28.131-3.9306 35.327-4.1514 6.7098 0.09108 10.212 0.04136 18.439 1.5473 1.3365 0.24464 2.3912 0.70969 2.4356 0.66536 0.0443-0.0443-0.15364-0.38768-0.43992-0.76301-0.67347-0.88297-2.1697-1.8652-3.7342-2.4514-2.6132-0.97918-9.5814-1.2407-17.189-1.5438-1.4753-0.05877-5.608 0.13429-10.622 0.40066-0.39066 0.02075-0.88589-1.4133-1.2864-1.3917-0.33829 0.01821-0.58058 1.4919-0.9248 1.5106-5.2859 0.28675-11.211 0.62218-15.944 0.8221-0.99608 0.04208-1.7864-2.0964-2.6597-2.068-0.88244 0.02865-1.8464 2.224-2.5685 2.2351-0.95348 0.01468-1.7517 0.01253-2.3541-0.01054-2.7335 0-8.4201-0.0718-12.808-1.1416-0.24032-0.05859-1.4239-1.7221-1.6557-1.7869-1.3245-0.36985-1.5518 0.75956-2.4459 0.15593-8.0423-7.7527-8.029-8.7657-6.1162-10.352 6.6205 7.1443 8.2986 7.407 11.306 8.2836 3.2816 0.95669 8.1073 0.73325 9.5178 1.0301 14.185 0.56756 35.365-2.0534 51.648-0.1953 3.6563 0.472 5.3239 1.6067 7.1577 2.4855 0.77397 0.37092 1.4407 0.64096 1.4815 0.6001 0.17813-0.17813-1.999-3.6478-2.6809-4.5284-4.5779-4.0622-17.971-7.0943-20.323-7.4824 0.45469-1.1106-1.7496-4.1038-3.9615-5.02-1.9407-0.12961-1.8329-8.0159-5.792-4.7424-1.0043-2.0306-0.4489-0.02813-1.5101-2.1804 0.23586-1.6253 0.47846-1.436 2.1836-1.2116 2.002 2.8182 3.9734 3.5231 6.663 7.032 1.6308 2.4865 5.9262 4.9408 5.8332 1.4749 0.96661 0.30411 1.7241 2.8748 2.2512 3.0966 0.18873 0.0794-0.58286-1.4648-0.42357-1.3904 1.5273 0.71328 2.0274 1.2636 7.7559 2.9412 5.5506 1.904 9.5022 5.9699 11.059 7.6233 2.929 3.1107 5.8156 7.9713 7.4378 11.531l0.73932 1.6226-0.0691-1.1632c-0.15416-2.5941-3.9743-8.9182-9.9539-16.478-1.1141-1.4086-2.0257-2.6278-2.0257-2.7093 0-0.27458 0.84434-0.74261 1.3397-0.74261 0.87195 0 3.1205 1.5178 4.1424 2.7962 5.2141 6.5228 8.4715 11.835 9.9899 16.293 0.33976 0.99739 0.82023 2.0264 1.0677 2.2866 0.48334 0.61779 0.5262 0.39701 1.0274-0.10421l0.57742-0.57743-0.49383-1.7092c-1.1028-3.817-2.3058-6.1772-6.9432-13.623-3.5383-5.6808-3.5604-5.7438-2.0148-5.7438 0.66906 0 1.0768 0.17499 2.2196 0.95259 0.76996 0.52392 1.5362 1.0608 1.7028 1.193 0.48797 0.38742 4.3113 6.8705 5.6376 9.5594 0.67025 1.3589 1.5267 3.4688 1.9032 4.6886 0.998 3.2334 1.1066 3.3189 2.1928 2.3651 0.69512-0.61031 0.60161-0.72523 0.49053-1.762-0.25907-2.4183-1.6488-6.7585-3.2967-10.296-0.45956-0.98648-0.83556-1.9085-0.83556-2.049 0-0.14049 0.24873-0.5338 0.55273-0.87404 0.53213-0.59556 0.57301-0.60812 1.0976-0.33706 0.88748 0.45855 2.4096 2.1224 3.0584 3.3434 0.33254 0.62575 1.0966 2.7913 1.6978 4.8123 0.60127 2.021 1.1618 3.6746 1.2457 3.6746 0.0839 0 0.43656-0.35658 0.7837-0.79239 1.6019-2.0111 2.1828-2.2911 2.984-1.4382 0.51812 0.55152 0.52698 1.2728 0.0333 2.7078-0.51016 1.4828-0.49033 1.8936 0.10443 2.1646 0.26741 0.12184 0.611 0.22153 0.76355 0.22153 0.37506 0 0.34882 0.49605-0.0944 1.7843-1.3111 3.8107-4.1382 7.1729-8.6 10.228-4.2384 2.9017-9.7375 4.7155-14.953 4.9317-2.5869 0.10728-4.092-0.19298-5.3769-1.0727-0.98726-0.67594-1.0226-1.269-0.11232-1.8824 0.9945-0.6702 2.309-0.98327 5.0532-1.2036 8.5224-0.68414 14.972-3.781 19.653-9.4373 0.73473-0.88771 0.75129-0.93138 0.22147-0.58373-5.8134 3.8145-12.148 6.5994-16.946 7.4509-1.4397 0.25545-2.5088 0.30891-4.6768 0.23389-2.9778-0.10304-4.7556-0.46068-6.8132-1.3707-1.1379-0.50323-1.283-0.76396-1.1996-2.1548l0.0484-0.80794c-2.1938 0.42283-12.966 1.3241-17.164 1.8394-5.6716 0.69603-21.721 6.3381-24.552 7.0651-7.086 2.775-3.1117 2.405-4.6495-0.73473-2.1656-2.4402-1.6891 2.1492 4.9735-3.0245 8.6769-4.9364 35.827-8.8796 41.34-8.8034 2.9305 0.11786 5.2101 0.37109 5.2554 0.32586 0.18999-0.18999-2.0418-1.2622-3.3765-1.6222-2.6281-0.70878-2.8781-1.4121-14.425-1.5894-3.3467 0.36015-12.24 0.28286-26.372 2.1543-9.5258 1.3811-14.149 3.1047-16.021 4.5615-1.9395 1.4738-2.7717 1.3727-8.0916 8.0511-0.77543 0.91314-2.2682 2.0417-3.2583 1.5545-0.90795-0.96428-1.1367-1.429 0.3828-3.5145z" stroke-width=".18933"/>
      <path d="m78.649 6.7402c1.9601 2.3402 3.7793 4.4942 5.8846 6.3656 2.8084 2.4965 5.1134 5.3683 8.0652 6.0487 10.075 2.3222 15.885 4.8749 20.501 11.059-5.3246-5.2206-10.588-8.0465-14.649-8.7076-4.4416-0.72291-8.3703-1.2834-11.558-4.1281-2.5722-2.2951-5.3861-4.2478-7.841-7.4683z"/>
      <path d="m39.376 52.561c3.0337-3.7208 6.552-10.158 12.679-12.081 6.2745-1.9695 23.175-4.325 35.095-5.0671 11.846-0.73757 22.002 0.96438 26.44 3.358-1.5058-0.34102-2.7666-0.958-4.7777-1.3487-15.774-3.064-27.354-0.58515-31.9-0.1366-8.7667 0.86504-19.621 2.664-27.224 5.8575-5.6318 4.8413-10.312 9.4174-10.312 9.4174z"/>
      <path d="m82.059 45.388c2.8638-0.52755 7.6564-1.7417 10.677-2.2441 3.2783-0.47103 9.7182-1.5397 12.808-1.4643 3.3412-0.07533 6.6651-0.20045 6.6651-0.20045-4.9297-0.48431-8.2927-0.0403-15.931 0.70593-5.4699 0.53438-31.214 4.8329-38.292 11.123-1.444 1.283-2.4285 3.055-3.0823 3.9924 0.40918-0.3447 2.6138-1.3099 3.3724-2.3397 1.6382-2.2236 4.059-3.1075 4.8662-3.4324 5.4178-2.1802 11.134-4.416 18.917-6.1399z"/>
      <path d="m78.649 6.7402-8.7674 11.678 9.1694-8.5086c0.19804-1.0182-0.24039-2.1099-0.40194-3.1696z"/>
     </g>
     <g fill-opacity=".24724">
      <path d="m117.52 76.789c-1.3126-0.8854-2.0026-2.3169-2.1307-4.4209-0.0955-1.5679 0.0613-2.7495 0.73565-5.5455 0.60227-2.4971 0.47215-3.0174 0.72116-4.4762l0.0333-1.2861-0.1864-0.34247c-0.10252-0.18835-0.20425-0.3405-0.22609-0.33811-0.0677 0.0074-0.88881 0.98162-1.3877 1.6463-1.0879 1.4495-1.7054 2.8792-1.8178 4.2093l-0.0435 0.51463-0.35106 0.07287c0.6184-5.0125 2.4852-5.8 3.361-6.7763 0.90899-1.0132 1.355 0.51055 0.38359 5.6201-0.59298 3.0986-0.87534 4.2698-0.69909 5.2335 0.30442 1.6643 1.6626 3.9861 2.4479 4.8318 0.18926 0.2038 0.19511 0.22907 0.14788 0.63801-0.027 0.2342-0.075 0.49381-0.10632 0.57692-0.0901 0.23777-0.36945 0.18774-0.88184-0.15789zm-6.0204-6.658-0.2937-0.0261 0.0363-0.26918c0.85456 0.09529 2.7756-0.33379 3.746-0.47233 0 0.75262 0.188 0.49048-1.5537 0.68094-1.2247 0.13394-1.3441 0.13928-1.9348 0.08676zm6.0406-1.2488c5.3368-1.3496 3.7609-7.2443 4.292-8.4877 0.30828-0.72188 2.5734 1.7015 5.37-0.33005 0.24027 0.49632 0.19211 0.58391-0.43711 0.795-1.1034 0.37017-2.5572 0.38616-4.0143 0.04412-0.44886-0.10537-0.61294-0.12049-0.67159-0.06194-0.0881 0.08798-0.0928 0.66681-0.0133 1.6157 0.0447 0.53228 0.0294 0.76409-0.0923 1.3988-0.36994 1.9292-1.0928 3.3412-2.2786 4.4506-0.46773 0.43762-0.63779 0.55307-0.94511 0.6416-0.20613 0.05939-0.54794 0.19486-0.75957 0.30106l-0.38482 0.19311c-0.0525-0.07764-0.0541-0.33591-0.0651-0.56024zm-3.7815-11.462c-0.10107-0.03044-0.28994-0.12097-0.41974-0.20118-0.19366-0.11968-0.2607-0.29306-0.2607-0.47705 2.2046 0.95306 4.0319 0.08971 5.5331-1.6044 1.2438-1.4036 1.9106-3.1891 2.3227-4.5303 0.0899 0.35805-0.42618 2.0823-0.91871 3.0697-0.95137 1.9072-2.5484 3.2052-4.5282 3.6802-0.55084 0.13218-1.3963 0.16297-1.7284 0.06298zm-2.8384-2.0423c-0.43757-0.10814-0.70069-0.25-1.0171-0.54836l-0.25779-0.24313 0.1572-0.12728c0.24334-0.19706 0.8409 0.79277 1.794 0.68944 0.48018-0.05207 1.2309-0.17945 1.7159-0.31467 1.85-0.51586 2.8033-0.84829 4.2798-2.3723 1.9789-2.2386 2.269-4.0242 2.3205-3.8159 0.17567 0.7112-2.3351 5.1692-4.4786 5.9445-0.70301 0.2622-0.7221 0.23472-2.2397 0.55103-1.7076 0.35592-1.7668 0.36208-2.2742 0.23668zm0.0785-2.7423c-0.91015 0.03775-1.4397-0.06789-1.8917-0.37741-0.5133-0.17616 1.8917 0.37741 3.615-0.07113 2.5134-0.65421 4.6426-2.1718 4.5581-2.0882-1.5258 1.5098-4.2295 2.6212-6.2814 2.5367z" stroke-width=".066611"/>
      <path d="m118.58 45.096c-2.9011 3.5784-6.7537 5.6477-11.153 3.7303 0.9704 0.5166 1.5381 1.1696 4.4788 1.0188 2.4805-0.42619 5.2591-2.3625 6.6746-4.7491z"/>
      <path d="m118.72 46.897c-2.9359 3.6133-4.1618 4.4682-9.391 4.7552 4.8545 0.14805 6.9818-0.86224 9.391-4.7552z"/>
      <path d="m119.47 48.358c-2.8663 3.9088-3.9977 5.489-9.391 6.157 5.0067-0.12428 7.0303-2.3405 9.391-6.157z"/>
      <path d="m120.48 50.293c-2.6984 3.8999-2.7962 6.1591-7.3763 6.3321 4.9979 0.12319 5.157-2.4185 7.3763-6.3321z"/>
      <path d="m111.62 45.179c1.0189 1.0025 1.9818 2.6195 1.3178 3.2405-0.84168 0.67752-0.96427-1.9356-2.8424-4.8274 0.38023 0.4394 0.74946 0.96195 1.1742 1.5875 0.53044 0.7812 1.0316 1.7731 1.3711 2.6705 0.0267-1.0443-0.59768-1.8154-1.0208-2.6711z"/>
      <path d="m113.92 47.302c-0.82479-1.6192-4.285-7.4768-5.4385-6.5043-0.0337 0.0285-0.0488-0.0743-0.0721-0.11317 0.0836-0.10336 0.17249-0.20539 0.47072-0.25509 1.0964-0.28944 4.2914 4.4134 5.0399 6.8726z"/>
      <path d="m115.9 47.039c-0.14293-0.02975-0.30107-0.68553-0.3324-0.80643-0.49616-1.915-2.1346-4.6749-2.7137-5.173 0.80232 1.2065 1.6456 3.1115 2.0027 3.914 0.29251 0.65724 0.45691 1.8508 0.89457 2.194 0.16476 0.11704 0.31472 0.13254 0.39876 0.12344 0.0918-0.04647 0.27601-0.14429 0.38856-0.60455 0.0867-0.93009-0.45967-2.8274-1.2496-4.3893-0.0721-0.14262-0.23665-0.47226-0.27326-0.45872 0 0-0.0515 0.05365-0.03 0.1281 0.25199 0.71643 1.2591 3.2249 1.3436 3.6766 0.0716 0.41745 0.20891 0.88896-4e-3 1.1455-0.16909 0.15598-0.22056 0.231-0.42422 0.2504z"/>
      <path d="m119.06 44.952c0.0856 0.22282-0.0787 0.58474-0.24835 1.0629-0.31981 0.84984-0.97028 1.2999-1.2078 1.5534-0.8428 0.63672-1.358 0.83674-2.0368 1.2548l-1.0857 0.54968c-0.44453 0.17935-1.9554 0.75057-3.2408 0.83322-0.34054 0.02189-2.1295-0.03445-3.4802-0.65505-0.33916-0.15583-0.39464 0.0065-0.21887 0.1567 0.37528 0.3209 1.118 0.50174 1.8675 0.59946 0.21337 0.02782 1.7059 0.08958 2.0779 0.03304 1.2138-0.19235 2.058-0.37927 3.449-1.0868 0.42637-0.20347 0.84834-0.38484 1.2848-0.63892 0.54069-0.29658 1.0854-0.62895 1.6315-0.97465 0.34728-0.22231 0.66081-0.55634 0.87396-0.92244 0.13598-0.32988 0.21958-0.65541 0.32639-0.98286 0.1636-0.53883 0.0636-0.65853 7e-3 -0.78249z"/>
      <path d="m92.752 51.959c0.85545-0.56606 2.9173-1.2404 4.606-1.7756 5.2557-1.4659 5.838-1.2881 9.0819-1.6476 1.704-0.05826 2.6896 0.12107 3.7388 0.37072-0.89151-0.02281-1.5814-0.18051-2.7496-0.08031-2.0238 0.30516-3.2668 0.36149-4.8955 0.53865-3.8856 0.45704-6.5379 1.7185-9.7816 2.5941z"/>
      <path d="m109.39 44.722c0.39615-1.9064-3.3886-3.3764-7.0958-3.9752 0.94992 0.30738 1.4846 0.41098 2.8454 0.83669 2.3548 0.92161 3.2994 1.0452 4.2504 3.1385z"/>
      <path d="m109.25 46.22c-0.35472-1.0932-1.385-1.6867-2.1992-1.7062-3.3988-0.13776-5.6205 0.07069-8.3578 0.12751 3.5234 0.52332 9.6533-0.58683 10.557 1.5787z"/>
      <path d="m106.74 46.729c-5.3253-0.55034-15.673 0.61984-17.796 1.7094 2.7088-1.8545 13.546-2.692 17.796-1.7094z"/>
      <path d="m117.11 57.469c-0.46614 0.06733-0.98615-0.14378-1.3696 0.15264-0.28955 0.26846-0.11467 0.91544-2.1631 3.9382 2.1672-2.2057 1.5812-2.9101 3.2337-3.9185 0.0923-0.05639 0.35018-0.08699 0.29906-0.17233z"/>
      <path d="m118.72 55.964c-0.17025 0.26846 2.5448 3.2988 4.4128 3.6393-2.4075-1.1196-3.2608-3.7246-3.616-4.3217-0.35767 0.24442-0.55507 0.46497-0.79684 0.68238z"/>
      <path d="m111.19 40.307c0.60777-0.14172 0.87142 0.20564 1.2124 0.43339-0.88822-0.48249-1.3368-0.46438-0.95369 0.4066-0.13318-0.22946-0.48381-0.78138-0.25867-0.83999z"/>
      <path d="m115.41 41.439c0.23833-0.03444 1.3505 0.96731 1.5428 2.0303-0.59096-1.3945-1.5042-2.2407-1.937-1.6304 0.14478-0.21112 0.21596-0.36029 0.39422-0.39985z"/>
     </g>
    </g>
    <g transform="matrix(1.2238 0 0 1.2238 -147.95 -79.352)">
     <path d="m177.55 110.93c8.8449-12.928 22.094-0.12631 14.299 9.39 0 0-13.52 14.443-14.38 15.971-0.93871-1.5235-14.451-16.118-14.451-16.118-7.5908-9.3633 5.7822-21.43 14.532-9.2429z"/>
     <g fill-opacity=".23747">
      <g filter="url(#l3d_a)">
       <path d="m163.75 114.3v0.70885c-0.44543 0.62087-1.1769 1.2596-1.2454 1.8716-0.0148 0.61292 0.73327 1.279 1.2454 1.9138 0.11457 0.20269 0.13335 0.42931 0 0.69398l-2.2499-2.5362-0.0593-0.067z"/>
       <path d="m163.75 114.3c-0.16581 0.25579-0.0935 0.48357 0 0.70885l1.6272 1.8853-1.6272 1.9002v0.69398l2.3092-2.6031z"/>
       <path d="m163.75 115.01c-0.41974 1.2618-0.0519 2.5237 0 3.7855l1.6272-1.9002z"/>
       <path d="m166.93 110.2v0.70885l2.0036 2.1256-1.7486 1.8738v0.69396l-2.5643-2.817z"/>
       <path d="m166.93 110.2-0.0411 0.66359 1.9234 2.1445-1.6272 1.9002c-0.20001 0.23132-0.0636 0.46265 0 0.69396l2.3092-2.6031z"/>
       <path d="m170.55 107.06 1.487 2.1407-1.4985 1.8266-1.9227-2.2729z"/>
       <path d="m170.93 105.93-0.0623 1.3885c-0.82511 0.0132-1.4694 0.94927-2.1712 1.4846l1.8445 2.2235v0.69397l-2.6113-3.1294z"/>
       <path d="m165.35 107.96-0.36329 0.26722 0.28537 0.32621-1.5731 1.9874-0.36122-0.43119c-0.10039 0.1584-0.19892 0.31855-0.27039 0.50578l0.67989 0.77562 2.261-2.7593z"/>
       <path d="m164.98 108.22c-0.60531 0.41734-1.1427 1.1102-1.649 1.8824l0.36122 0.43119 1.6272-1.9002z"/>
      </g>
      <path d="m163.75 115.01v3.7855l-1.8181-1.8774z" filter="url(#l3d_av)"/>
      <g transform="matrix(.35183 0 0 .35183 222.07 83.802)" filter="url(#l3d_au)">
       <path d="m-126.9 130.99v2.0148l-4.625 5.3586 4.625 5.401v1.9724l-6.5636-7.3988z"/>
       <path d="m-126.9 130.99c-0.0451 0.66685-0.33077 1.3084 0 2.0148l4.625 5.3586-4.625 5.401c-0.12585 0.67147-0.60176 1.3818 0 1.9724l6.5636-7.3988z"/>
       <path d="m-126.9 133.01 4.625 5.3586-4.625 5.401-4.625-5.401z"/>
      </g>
      <path d="m180.83 126.03v0.70885l-1.6272 1.8853 1.6272 1.9002v0.69397l-2.3092-2.6031z" filter="url(#l3d_at)"/>
      <path d="m180.83 126.03c-2e-3 0.23713-0.0331 0.4865 0 0.70885l1.6272 1.8853-1.6272 1.9002c-0.0681 0.23869-1e-3 0.46281 0 0.69397l2.3092-2.6031z" filter="url(#l3d_as)"/>
      <path d="m180.83 126.74v3.7855l-1.6272-1.9002z" filter="url(#l3d_ar)"/>
      <path d="m180.83 126.74c0 1.2618-0.12793 2.5086 0 3.7855l1.6272-1.9002z" filter="url(#l3d_aq)"/>
      <g transform="matrix(.35183 0 0 .35183 218.59 79.946)" filter="url(#l3d_ap)">
       <path d="m-126.9 130.99v2.0148l-4.625 5.3586 4.625 5.401v1.9724l-6.5636-7.3988z"/>
       <path d="m-126.9 130.99c-0.0819 0.6443-0.27013 1.2531 0 2.0148l4.625 5.3586-4.625 5.401c-0.14213 0.6486-0.20798 1.302 0 1.9724l6.5636-7.3988z"/>
       <path d="m-126.9 133.01 4.625 5.3586-4.625 5.401-4.625-5.401z"/>
      </g>
      <g transform="matrix(.35183 0 0 .35183 215.2 76.083)" filter="url(#l3d_ao)">
       <path d="m-126.9 130.99v2.0148l-4.625 5.3586 4.625 5.401v1.9724l-6.5636-7.3988z"/>
       <path d="m-126.9 130.99c-0.64783 0.73049-0.29255 1.3698 0 2.0148l4.625 5.3586-4.625 5.401c-0.26033 0.68641-0.51496 1.3722 0 1.9724l6.5636-7.3988z"/>
       <path d="m-126.9 133.01v10.76l-4.625-5.401z"/>
       <path d="m-126.9 133.01c-0.93907 3.7626-0.43011 7.2537 0 10.76l4.625-5.401z"/>
      </g>
      <g transform="matrix(.35183 0 0 .35183 222.07 76.083)" filter="url(#l3d_an)">
       <path d="m-126.9 130.99v2.0148l-4.625 5.3586 4.625 5.401v1.9724l-6.5636-7.3988z"/>
       <path d="m-126.9 130.99c-0.0907 0.67807-0.31814 1.3659 0 2.0148l4.625 5.3586-4.625 5.401c-0.41805 0.60523-0.0244 1.3119 0 1.9724l6.5636-7.3988z"/>
       <path d="m-126.9 133.01 4.625 5.3586-4.625 5.401-4.625-5.401z"/>
      </g>
      <path d="m184.33 122.17v0.70888l-1.6272 1.8853 1.6272 1.9002v0.69397l-2.3092-2.6031z" filter="url(#l3d_am)"/>
      <path d="m184.33 122.17c-0.1034 0.26583-6e-3 0.47438 0 0.70888l1.6272 1.8853-1.6272 1.9002c-0.13214 0.27099-6e-3 0.46441 0 0.69397l2.3092-2.6031z" filter="url(#l3d_al)"/>
      <path d="m184.33 122.88v3.7855l-1.6272-1.9002z" filter="url(#l3d_ak)"/>
      <path d="m184.33 122.88c-0.10607 1.2666-9e-3 2.524 0 3.7855l1.6272-1.9002z" filter="url(#l3d_aj)"/>
      <g transform="matrix(.35183 0 0 .35183 225.48 72.19)" filter="url(#l3d_ai)">
       <path d="m-126.9 130.99v2.0148l-4.625 5.3586 4.625 5.401v1.9724l-6.5636-7.3988z"/>
       <path d="m-126.9 130.99c-0.0332 0.67062-0.15184 1.3387 0 2.0148l4.625 5.3586-4.625 5.401c-0.38472 0.50951-0.42557 1.1513 0 1.9724l6.5636-7.3988z"/>
       <path d="m-126.9 133.01v10.76l-4.625-5.401z"/>
       <path d="m-126.9 133.01c-0.75716 3.6437-0.48523 7.2097 0 10.76l4.625-5.401z"/>
      </g>
      <path d="m187.72 118.28v0.70886l-1.6272 1.8853 1.6272 1.9002v0.69396l-2.3092-2.6031z" filter="url(#l3d_ah)"/>
      <path d="m187.72 118.28v0.70886l1.6272 1.8853-1.6272 1.9002c-0.0773 0.22539-0.29786 0.43973 0 0.69396l2.3092-2.6031z" filter="url(#l3d_ag)"/>
      <path d="m187.72 118.99v3.7855l-1.6272-1.9002z" filter="url(#l3d_af)"/>
      <path d="m187.72 118.99c-0.32684 1.3786-0.0731 2.5498 0 3.7855l1.6272-1.9002z" filter="url(#l3d_ae)"/>
      <g transform="matrix(.35183 0 0 .35183 218.59 72.19)" filter="url(#l3d_ad)">
       <path d="m-126.9 130.99v2.0148l-4.625 5.3586 4.625 5.401c0.3499 0.70414 0.082 1.3259 0 1.9724l-6.5636-7.3988z"/>
       <path d="m-126.9 130.99c-0.22126 0.67159-0.14997 1.3432 0 2.0148l4.625 5.3586-4.625 5.401v1.9724l6.5636-7.3988z"/>
       <path d="m-126.9 133.01 4.625 5.3586-4.625 5.401-4.625-5.401z"/>
      </g>
      <path d="m167.14 118.23v0.70885l-1.6272 1.8853 1.6272 1.9002v0.69396l-2.3092-2.6031z" filter="url(#l3d_ac)"/>
      <path d="m167.14 118.23c-0.025 0.23856-0.13055 0.48446 0 0.70885l1.6272 1.8853-1.6272 1.9002c-0.0732 0.23132-0.194 0.46264 0 0.69396l2.3092-2.6031z" filter="url(#l3d_ab)"/>
      <path d="m167.14 118.94v3.7855l-1.6272-1.9002z" filter="url(#l3d_aa)"/>
      <path d="m167.14 118.94c-0.21483 1.3642-0.10202 2.5723 0 3.7855l1.6272-1.9002z" filter="url(#l3d_z)"/>
      <g transform="matrix(.35183 0 0 .35183 215.2 68.261)" filter="url(#l3d_y)">
       <path d="m-126.9 130.99v2.0148l-4.625 5.3586 4.625 5.401v1.9724l-6.5636-7.3988z"/>
       <path d="m-126.9 130.99c-0.12534 0.65369-0.45164 1.2787 0 2.0148l4.625 5.3586-4.625 5.401c-0.23525 0.68362-0.53292 1.3742 0 1.9724l6.5636-7.3988z"/>
       <path d="m-126.9 133.01c0.39252 3.6156 0.77095 7.2302 0 10.76l-4.625-5.401z"/>
       <path d="m-126.9 133.01v10.76l4.625-5.401z"/>
      </g>
      <path d="m174.02 110.49v0.70885l-1.6272 1.8853 1.6272 1.9002v0.69396l-2.3092-2.6031z" filter="url(#l3d_x)"/>
      <path d="m174.02 110.49c-9e-3 0.23731-0.0789 0.48133 0 0.70885l1.6272 1.8853-1.6272 1.9002v0.69396l2.3092-2.6031z" filter="url(#l3d_w)"/>
      <path d="m174.02 111.2v3.7855l-1.6272-1.9002z" filter="url(#l3d_v)"/>
      <path d="m174.02 111.2c-0.18003 1.2853-0.0587 2.5313 0 3.7855l1.6272-1.9002z" filter="url(#l3d_u)"/>
      <path d="m177.46 114.32v0.70883l-1.6272 1.8853 1.6272 1.9002v0.69397l-2.3092-2.6031z" filter="url(#l3d_t)"/>
      <path d="m177.46 114.32c5e-3 0.21814-0.16997 0.25753 0 0.70883l1.6272 1.8853-1.6272 1.9002v0.69397l2.3092-2.6031z" filter="url(#l3d_s)"/>
      <path d="m177.46 115.03 1.6272 1.8853-1.6272 1.9002-1.6272-1.9002z" filter="url(#l3d_r)"/>
      <path d="m180.83 110.41v0.70884l-1.6272 1.8853 1.6272 1.9002v0.69396l-2.3092-2.6031z" filter="url(#l3d_q)"/>
      <path d="m180.83 110.41c-0.0767 0.23629-0.0369 0.47256 0 0.70884l1.6272 1.8853-1.6272 1.9002c-0.11039 0.20924-0.0499 0.45265 0 0.69396l2.3092-2.6031z" filter="url(#l3d_p)"/>
      <path d="m180.83 111.12v3.7855l-1.6272-1.9002z" filter="url(#l3d_o)"/>
      <path d="m180.83 111.12c-0.28536 1.3617-0.0115 2.5277 0 3.7855l1.6272-1.9002z" filter="url(#l3d_n)"/>
      <g filter="url(#l3d_m)">
       <path d="m187.86 110.72c-0.33479 1.4016-0.67138 2.9238-0.15311 4.1855l1.9803-2.1908z"/>
       <path d="m187.91 109.98-0.20623 1.1401-1.6272 1.8853 1.6272 1.9002v0.69397l-2.3092-2.6031z"/>
       <path d="m187.91 109.98-0.22151 1.1299 1.6425 1.8955-1.6272 1.9002v0.69397l2.6789-3.0169z"/>
       <path d="m187.86 110.72-0.15311 4.1855-1.6272-1.9002z"/>
       <path d="m184.23 106.56 0.16455 0.76747-1.7918 1.8267 1.8158 1.4722-0.18858 1.122-2.3092-2.6031z"/>
       <path d="m184.23 106.56c0.0647 0.29069-0.0912 0.55011-0.16661 0.82096l1.7938 1.7732-1.6272 1.9002c-0.058 0.22302-0.0269 0.45878 0 0.69395l2.3092-2.6031z"/>
       <path d="m184.46 107.55c0.66573 1.4456 0.7649 1.7446-0.2269 3.5038l-1.6272-1.9002 1.2634-1.4637c0.21783-0.29203 0.4288-0.22184 0.59074-0.13994z"/>
       <path d="m184.1 107.51c-0.18885 1.3004-0.0984 2.5526 0.0928 3.7754l1.6623-2.131c-0.46485-0.53857-0.79657-1.0045-1.3374-1.5846-0.0902-0.0968-0.29498-0.11966-0.41776-0.0598z"/>
      </g>
      <path d="m193.29 112.43 0.25708 1.7341-0.67224-1.1587z" filter="url(#l3d_l)"/>
      <path d="m161.17 111.99-0.32428 2.4117 1.1541-1.3942z" filter="url(#l3d_k)"/>
      <path d="m170.37 106.35 0.18469 0.71217c0.8251-0.0132 0.1759 0.81514 1.3664 2.1432l-1.4688 1.7048 0.0903 0.81327 2.3093-2.6031c-0.82716-0.9235-1.6368-1.8523-2.482-2.7704z" filter="url(#l3d_j)"/>
      <g transform="matrix(.35183 0 0 .35183 228.88 68.278)" filter="url(#l3d_i)">
       <path d="m-126.9 130.99v2.0148l-4.625 5.3586 4.625 5.401v1.9724l-6.5636-7.3988z"/>
       <path d="m-126.9 130.99c-0.19523 0.67159-0.0147 1.3432 0 2.0148l4.625 5.3586-4.625 5.401c-0.32903 0.66923-3.7e-4 1.315 0 1.9724l6.5636-7.3988z"/>
       <path d="m-126.9 133.01v10.76l-4.625-5.401z"/>
       <path d="m-126.9 133.01c-0.46409 3.5304-0.60938 7.0994 0 10.76l4.625-5.401z"/>
      </g>
      <path d="m191.04 114.33v0.70885l-1.6272 1.8853 1.6272 1.9002v0.69398l-2.3092-2.6031z" filter="url(#l3d_h)"/>
      <path d="m191.04 114.33c-0.0202 0.2325-0.13773 0.44675 0 0.70885l1.6272 1.8853-1.6272 1.9002c-0.2896 0.2796-0.047 0.47048 0 0.69398l2.0625-2.3249c0.10876-0.164 0.21091-0.3303 0.18277-0.53998z" filter="url(#l3d_g)"/>
      <path d="m191.04 115.04v3.7855l-1.6272-1.9002z" filter="url(#l3d_f)"/>
      <path d="m191.04 115.04c-0.22672 1.2744-0.32784 2.5419 0 3.7855l1.6272-1.9002z" filter="url(#l3d_e)"/>
     </g>
     <path d="m168.55 105.22c-1.7724 0.16743-3.4088 0.8585-4.7428 1.9502-3.5574 2.9113-4.948 8.5006-1.0328 13.2l8e-3 0.012s2.9418 3.1767 6.1748 6.7204c3.233 3.5438 6.7684 7.4686 7.9133 8.9084 0.0788 0.0991 0.14719 0.19338 0.21027 0.2728 0.0315 0.0397 0.0605 0.0753 0.0996 0.11341 0.0384 0.0372 0.0729 0.11735 0.26732 0.11471 0.1223-2e-3 0.1683-0.0428 0.20134-0.066 0.0345-0.0244 0.0564-0.0456 0.079-0.068 0.0452-0.0449 0.0875-0.0941 0.13532-0.1518 0.0956-0.11572 0.20895-0.26308 0.3312-0.41782 1.2755-1.6144 4.7238-5.4129 7.8549-8.8073 1.5655-1.6972 3.0541-3.2967 4.1587-4.481 0.5523-0.59213 1.0089-1.0802 1.331-1.4252 0.16107-0.17249 0.28857-0.30934 0.37794-0.40543 0.0447-0.0479 0.0798-0.0858 0.10513-0.11339 0.0253-0.0275 0.0271-0.0275 0.0543-0.0606 3.9982-4.861 2.618-10.468-0.95928-13.364-1.7886-1.4482-4.2088-2.1239-6.6776-1.8185-2.3846 0.29506-4.7208 2.6489-6.9456 5.3014-2.217-2.6727-4.5516-5.0881-6.923-5.3756-0.6138-0.0743-1.4327-0.0956-2.0235-0.0397zm0.0606 0.58003c0.54831-0.0518 1.1911 0.0822 1.7609 0.15131 2.279 0.27627 4.5963 2.8322 6.7926 5.5992 0.24188 0.34485 0.38383 0.28657 0.6316-0.0219 2.2033-2.7451 4.5085-5.4076 6.8037-5.6916 2.2952-0.28401 4.4634 0.44263 6.1343 1.7928 3.343 2.7013 5.0804 7.6364 0.87132 12.496-0.0203 0.0234-8e-3 8e-3 -0.0323 0.0343-0.0241 0.0262-0.0587 0.0636-0.10308 0.11142-0.0887 0.0954-0.21627 0.23166-0.37725 0.40405-0.32197 0.34484-0.4404 0.70551-0.9929 1.2979-1.0763 1.4146-2.9319 2.9152-4.4989 4.6117-3.0299 2.9827-6.4102 6.5445-7.8858 8.8424-0.0887 0.13797-0.18471 0.23534-0.26112 0.33052-0.0341-0.0447-0.058-0.0769-0.0996-0.12923-3.7932-4.6891-5.1671-5.9583-7.9401-8.9392-3.0272-2.7323-5.9127-6.4577-6.1672-6.7122l-8.4e-4 -8.5e-4c-3.7163-4.4625-2.3715-9.6113 0.95102-12.33 1.2461-1.0198 2.7694-1.6906 4.4143-1.8457z" color="#000000" color-rendering="auto" dominant-baseline="auto" image-rendering="auto" shape-rendering="auto" solid-color="#000000" style="font-feature-settings:normal;font-variant-alternates:normal;font-variant-caps:normal;font-variant-ligatures:normal;font-variant-numeric:normal;font-variant-position:normal;isolation:auto;mix-blend-mode:normal;shape-padding:0;text-decoration-color:#000000;text-decoration-line:none;text-decoration-style:solid;text-indent:0;text-orientation:mixed;text-transform:none;white-space:normal"/>
     <g fill-opacity=".23747">
      <path d="m162.19 112.35c-0.23903 0.78859-0.42202 1.1795-0.42202 1.9601l0.91278-1.3149z" filter="url(#l3d_d)"/>
      <path d="m190.14 107.9c0.55744 0.60063 1.3303 1.2804 1.9971 2.2702l-0.80372 0.98367-2.3387-1.8697z" filter="url(#l3d_c)"/>
      <path d="m187.44 106.83-0.34878 0.35824-0.51026-0.57449c0.25095 0.0275 0.59528 0.16816 0.85904 0.21625z" filter="url(#l3d_b)"/>
     </g>
    </g>
   </g>
  </g>
  <g transform="matrix(1.2238 0 0 1.2238 -39.192 7.1363)">
   <g transform="matrix(.35183 0 0 .35183 70.25 33.179)" fill="#1a1a1a">
    <path d="m78.649 6.7402c1.9601 2.3402 3.7793 4.4942 5.8846 6.3656 2.8084 2.4965 5.1134 5.3683 8.0652 6.0487 10.075 2.3222 15.885 4.8749 20.501 11.059-5.3246-5.2206-10.588-8.0465-14.649-8.7076-4.4416-0.72291-8.3703-1.2834-11.558-4.1281-2.5722-2.2951-5.3861-4.2478-7.841-7.4683z"/>
    <path d="m39.376 52.561c3.0337-3.7208 6.552-10.158 12.679-12.081 6.2745-1.9695 23.175-4.325 35.095-5.0671 11.846-0.73757 22.002 0.96438 26.44 3.358-1.5058-0.34102-2.7666-0.958-4.7777-1.3487-15.774-3.064-27.354-0.58515-31.9-0.1366-8.7667 0.86504-19.621 2.664-27.224 5.8575-5.6318 4.8413-10.312 9.4174-10.312 9.4174z"/>
    <path d="m82.059 45.388c2.8638-0.52755 7.6564-1.7417 10.677-2.2441 3.2783-0.47103 9.7182-1.5397 12.808-1.4643 3.3412-0.07533 6.6651-0.20045 6.6651-0.20045-4.9297-0.48431-8.2927-0.0403-15.931 0.70593-5.4699 0.53438-31.214 4.8329-38.292 11.123-1.444 1.283-2.4285 3.055-3.0823 3.9924 0.40918-0.3447 2.6138-1.3099 3.3724-2.3397 1.6382-2.2236 4.059-3.1075 4.8662-3.4324 5.4178-2.1802 11.134-4.416 18.917-6.1399z"/>
    <path d="m78.649 6.7402-8.7674 11.678 9.1694-8.5086c0.19804-1.0182-0.24039-2.1099-0.40194-3.1696z"/>
   </g>
   <g fill="#d49000" fill-opacity=".24725">
    <path d="m117.52 76.789c-1.3126-0.8854-2.0026-2.3169-2.1307-4.4209-0.0955-1.5679 0.0613-2.7495 0.73565-5.5455 0.60227-2.4971 0.47215-3.0174 0.72116-4.4762l0.0333-1.2861-0.1864-0.34247c-0.10252-0.18835-0.20425-0.3405-0.22609-0.33811-0.0677 0.0074-0.88881 0.98162-1.3877 1.6463-1.0879 1.4495-1.7054 2.8792-1.8178 4.2093l-0.0435 0.51463-0.35106 0.07287c0.6184-5.0125 2.4852-5.8 3.361-6.7763 0.90899-1.0132 1.355 0.51055 0.38359 5.6201-0.59298 3.0986-0.87534 4.2698-0.69909 5.2335 0.30442 1.6643 1.6626 3.9861 2.4479 4.8318 0.18926 0.2038 0.19511 0.22907 0.14788 0.63801-0.027 0.2342-0.075 0.49381-0.10632 0.57692-0.0901 0.23777-0.36945 0.18774-0.88184-0.15789zm-6.0204-6.658-0.2937-0.0261 0.0363-0.26918c0.85456 0.09529 2.7756-0.33379 3.746-0.47233 0 0.75262 0.188 0.49048-1.5537 0.68094-1.2247 0.13394-1.3441 0.13928-1.9348 0.08676zm6.0406-1.2488c5.3368-1.3496 3.7609-7.2443 4.292-8.4877 0.30828-0.72188 2.5734 1.7015 5.37-0.33005 0.24027 0.49632 0.19211 0.58391-0.43711 0.795-1.1034 0.37017-2.5572 0.38616-4.0143 0.04412-0.44886-0.10537-0.61294-0.12049-0.67159-0.06194-0.0881 0.08798-0.0928 0.66681-0.0133 1.6157 0.0447 0.53228 0.0294 0.76409-0.0923 1.3988-0.36994 1.9292-1.0928 3.3412-2.2786 4.4506-0.46773 0.43762-0.63779 0.55307-0.94511 0.6416-0.20613 0.05939-0.54794 0.19486-0.75957 0.30106l-0.38482 0.19311c-0.0525-0.07764-0.0541-0.33591-0.0651-0.56024zm-3.7815-11.462c-0.10107-0.03044-0.28994-0.12097-0.41974-0.20118-0.19366-0.11968-0.2607-0.29306-0.2607-0.47705 2.2046 0.95306 4.0319 0.08971 5.5331-1.6044 1.2438-1.4036 1.9106-3.1891 2.3227-4.5303 0.0899 0.35805-0.42618 2.0823-0.91871 3.0697-0.95137 1.9072-2.5484 3.2052-4.5282 3.6802-0.55084 0.13218-1.3963 0.16297-1.7284 0.06298zm-2.8384-2.0423c-0.43757-0.10814-0.70069-0.25-1.0171-0.54836l-0.25779-0.24313 0.1572-0.12728c0.24334-0.19706 0.8409 0.79277 1.794 0.68944 0.48018-0.05207 1.2309-0.17945 1.7159-0.31467 1.85-0.51586 2.8033-0.84829 4.2798-2.3723 1.9789-2.2386 2.269-4.0242 2.3205-3.8159 0.17567 0.7112-2.3351 5.1692-4.4786 5.9445-0.70301 0.2622-0.7221 0.23472-2.2397 0.55103-1.7076 0.35592-1.7668 0.36208-2.2742 0.23668zm0.0785-2.7423c-0.91015 0.03775-1.4397-0.06789-1.8917-0.37741-0.5133-0.17616 1.8917 0.37741 3.615-0.07113 2.5134-0.65421 4.6426-2.1718 4.5581-2.0882-1.5258 1.5098-4.2295 2.6212-6.2814 2.5367z" stroke-width=".066611"/>
    <path d="m118.58 45.096c-2.9011 3.5784-6.7537 5.6477-11.153 3.7303 0.9704 0.5166 1.5381 1.1696 4.4788 1.0188 2.4805-0.42619 5.2591-2.3625 6.6746-4.7491z"/>
    <path d="m118.72 46.897c-2.9359 3.6133-4.1618 4.4682-9.391 4.7552 4.8545 0.14805 6.9818-0.86224 9.391-4.7552z"/>
    <path d="m119.47 48.358c-2.8663 3.9088-3.9977 5.489-9.391 6.157 5.0067-0.12428 7.0303-2.3405 9.391-6.157z"/>
    <path d="m120.48 50.293c-2.6984 3.8999-2.7962 6.1591-7.3763 6.3321 4.9979 0.12319 5.157-2.4185 7.3763-6.3321z"/>
    <path d="m111.62 45.179c1.0189 1.0025 1.9818 2.6195 1.3178 3.2405-0.84168 0.67752-0.96427-1.9356-2.8424-4.8274 0.38023 0.4394 0.74946 0.96195 1.1742 1.5875 0.53044 0.7812 1.0316 1.7731 1.3711 2.6705 0.0267-1.0443-0.59768-1.8154-1.0208-2.6711z"/>
    <path d="m113.92 47.302c-0.82479-1.6192-4.285-7.4768-5.4385-6.5043-0.0337 0.0285-0.0488-0.0743-0.0721-0.11317 0.0836-0.10336 0.17249-0.20539 0.47072-0.25509 1.0964-0.28944 4.2914 4.4134 5.0399 6.8726z"/>
    <path d="m115.9 47.039c-0.14293-0.02975-0.30107-0.68553-0.3324-0.80643-0.49616-1.915-2.1346-4.6749-2.7137-5.173 0.80232 1.2065 1.6456 3.1115 2.0027 3.914 0.29251 0.65724 0.45691 1.8508 0.89457 2.194 0.16476 0.11704 0.31472 0.13254 0.39876 0.12344 0.0918-0.04647 0.27601-0.14429 0.38856-0.60455 0.0867-0.93009-0.45967-2.8274-1.2496-4.3893-0.0721-0.14262-0.23665-0.47226-0.27326-0.45872 0 0-0.0515 0.05365-0.03 0.1281 0.25199 0.71643 1.2591 3.2249 1.3436 3.6766 0.0716 0.41745 0.20891 0.88896-4e-3 1.1455-0.16909 0.15598-0.22056 0.231-0.42422 0.2504z"/>
    <path d="m119.06 44.952c0.0856 0.22282-0.0787 0.58474-0.24835 1.0629-0.31981 0.84984-0.97028 1.2999-1.2078 1.5534-0.8428 0.63672-1.358 0.83674-2.0368 1.2548l-1.0857 0.54968c-0.44453 0.17935-1.9554 0.75057-3.2408 0.83322-0.34054 0.02189-2.1295-0.03445-3.4802-0.65505-0.33916-0.15583-0.39464 0.0065-0.21887 0.1567 0.37528 0.3209 1.118 0.50174 1.8675 0.59946 0.21337 0.02782 1.7059 0.08958 2.0779 0.03304 1.2138-0.19235 2.058-0.37927 3.449-1.0868 0.42637-0.20347 0.84834-0.38484 1.2848-0.63892 0.54069-0.29658 1.0854-0.62895 1.6315-0.97465 0.34728-0.22231 0.66081-0.55634 0.87396-0.92244 0.13598-0.32988 0.21958-0.65541 0.32639-0.98286 0.1636-0.53883 0.0636-0.65853 7e-3 -0.78249z"/>
    <path d="m92.752 51.959c0.85545-0.56606 2.9173-1.2404 4.606-1.7756 5.2557-1.4659 5.838-1.2881 9.0819-1.6476 1.704-0.05826 2.6896 0.12107 3.7388 0.37072-0.89151-0.02281-1.5814-0.18051-2.7496-0.08031-2.0238 0.30516-3.2668 0.36149-4.8955 0.53865-3.8856 0.45704-6.5379 1.7185-9.7816 2.5941z"/>
    <path d="m109.39 44.722c0.39615-1.9064-3.3886-3.3764-7.0958-3.9752 0.94992 0.30738 1.4846 0.41098 2.8454 0.83669 2.3548 0.92161 3.2994 1.0452 4.2504 3.1385z"/>
    <path d="m109.25 46.22c-0.35472-1.0932-1.385-1.6867-2.1992-1.7062-3.3988-0.13776-5.6205 0.07069-8.3578 0.12751 3.5234 0.52332 9.6533-0.58683 10.557 1.5787z"/>
    <path d="m106.74 46.729c-5.3253-0.55034-15.673 0.61984-17.796 1.7094 2.7088-1.8545 13.546-2.692 17.796-1.7094z"/>
    <path d="m117.11 57.469c-0.46614 0.06733-0.98615-0.14378-1.3696 0.15264-0.28955 0.26846-0.11467 0.91544-2.1631 3.9382 2.1672-2.2057 1.5812-2.9101 3.2337-3.9185 0.0923-0.05639 0.35018-0.08699 0.29906-0.17233z"/>
    <path d="m118.72 55.964c-0.17025 0.26846 2.5448 3.2988 4.4128 3.6393-2.4075-1.1196-3.2608-3.7246-3.616-4.3217-0.35767 0.24442-0.55507 0.46497-0.79684 0.68238z"/>
    <path d="m111.19 40.307c0.60777-0.14172 0.87142 0.20564 1.2124 0.43339-0.88822-0.48249-1.3368-0.46438-0.95369 0.4066-0.13318-0.22946-0.48381-0.78138-0.25867-0.83999z"/>
    <path d="m115.41 41.439c0.23833-0.03444 1.3505 0.96731 1.5428 2.0303-0.59096-1.3945-1.5042-2.2407-1.937-1.6304 0.14478-0.21112 0.21596-0.36029 0.39422-0.39985z"/>
   </g>
  </g>
  <g transform="matrix(1.2238 0 0 1.2238 -147.95 -79.352)">
   <g fill="#fff">
    <path transform="matrix(.35183 0 0 .35183 159.12 103.85)" d="m134.36 123.95c-3.731-2.5166-5.692-6.5854-6.0562-12.566-0.2714-4.4565 0.17411-7.8149 2.0909-15.762 1.7119-7.0974 1.342-8.5764 2.0498-12.723l0.0948-3.6556-0.52979-0.9734c-0.29138-0.53537-0.58057-0.96783-0.64262-0.96101-0.19229 0.02109-2.5263 2.7901-3.9444 4.6794-3.0922 4.1199-4.8471 8.1836-5.1667 11.964l-0.12365 1.4627-0.99779 0.20714c-2.0101 0.41729-2.0581 0.40357-2.3416-0.66865-0.37877-1.4329-0.19989-5.0119 0.32914-6.5856 0.71748-2.1343 2.3278-5.1238 4.6296-8.5945 2.5553-3.853 4.2212-6.8957 4.8346-8.8304 0.50206-1.5835 0.56243-1.6202 2.9445-1.7893l1.6532-0.11735 0.59107 1.5053c1.4077 3.5851 1.9258 6.1062 2.0944 10.191 0.19257 4.6663-0.29965 8.8321-2.2443 18.993-1.6855 8.8071-1.6648 8.6057-1.1638 11.345 0.86521 4.7304 2.0549 7.4706 4.2871 9.8743 0.53793 0.57927 0.55457 0.65109 0.42031 1.8134-0.0769 0.66566-0.21295 1.4036-0.30235 1.6398-0.25576 0.67582-1.05 0.53361-2.5064-0.44876zm-17.112-18.924-0.83478-0.0742 0.10262-0.76509c0.15745-1.1739 0.91172-2.1497 2.1177-2.7397 0.93541-0.45767 1.3702-0.53033 4.0661-0.67965 1.6603-0.092 3.3408-0.17047 3.7345-0.17446l0.71583-7e-3v1.8098c0 2.1392 0.54767 1.8426-4.4027 2.384-3.4811 0.38068-3.8202 0.39589-5.4993 0.24662zm17.232-2.4443c-0.15787-0.62902 0.0445-1.8797 0.42254-2.6107 0.45251-0.87506 1.7316-2.1835 3.3189-3.3951 1.6359-1.2487 3.0555-2.7055 3.5294-3.622 1.0205-1.9733 1.7117-8.5001 1.2595-11.893-0.61592-4.621-3.0073-9.7654-6.1255-13.177-0.52474-0.57417-0.95409-1.1287-0.95409-1.2322 0-0.10357 0.91613-1.0364 2.0358-2.073 1.4353-1.3287 2.0627-1.8002 2.1269-1.5984 0.25263 0.79463 3.4382 6.7374 4.1538 7.749 1.5483 2.1887 3.6032 3.7486 5.6215 4.2673 0.47069 0.12098 1.1797 0.34443 1.5755 0.49657 1.0419 0.40048 2.4726 0.3416 4.8745-0.20061 3.5933-0.81114 4.7372-0.58063 5.5608 1.1206 0.68291 1.4107 0.54603 1.6596-1.2424 2.2596-3.1361 1.0521-7.2684 1.0976-11.41 0.12544-1.2758-0.29947-1.7422-0.34246-1.9089-0.176-0.2504 0.25007-0.26393 1.8953-0.0378 4.5922 0.12687 1.5129 0.0834 2.1718-0.26257 3.9757-1.0515 5.4835-3.1062 9.4966-6.4767 12.65-1.3295 1.2439-1.8128 1.572-2.6864 1.8236-0.58584 0.16877-1.5574 0.55384-2.1589 0.85571l-1.0938 0.54888zm-10.811-33.683c-0.28723-0.0865-0.82411-0.3438-1.193-0.57183-0.55041-0.34017-0.67079-0.52895-0.67079-1.0519v-0.63734l1.2885-0.12615c3.2188-0.31511 5.8178-1.378 8.3777-3.4262 2.7309-2.185 5.0963-5.3345 8.9454-11.911 1.2388-2.1164 2.0202-3.2636 2.226-3.2679 0.38586-8e-3 1.2624 0.99593 1.4208 1.6274 0.25542 1.0177-1.2113 5.9186-2.6113 8.7251-2.7041 5.421-7.2433 9.1101-12.871 10.46-1.5657 0.37566-3.9688 0.46322-4.9127 0.179zm-8.0677-5.8049c-1.2437-0.30737-1.9916-0.71058-2.8908-1.5586l-0.73273-0.69105 0.44678-0.36178c0.69168-0.56009 2.1858-0.93524 4.8947-1.2289 1.3648-0.14799 2.8681-0.39459 3.3405-0.54801 5.1921-1.686 8.4297-3.7612 12.626-8.0928 2.0538-2.1198 6.2812-7.363 6.5942-8.1787 0.0635-0.16538 0.407-0.2603 0.94209-0.2603 0.98475 0 0.98311-0.1135 0.0398 2.7617-2.13 6.492-6.525 11.865-12.804 15.653-1.412 0.85184-1.6794 0.93361-5.9928 1.8327-4.8536 1.0116-5.0218 1.0291-6.4641 0.67271zm-75.885-12.36c2.8921-4.8343 6.4086-7.6301 8.2427-8.697 1.3881-0.80752 4.5539-2.2879 6.7365-2.9874 5.1062-1.6366 28.131-3.9306 35.327-4.1514 6.7098 0.09108 10.212 0.04136 18.439 1.5473 1.3365 0.24464 2.3912 0.70969 2.4356 0.66536 0.0443-0.0443-0.15364-0.38768-0.43992-0.76301-0.67347-0.88297-2.1697-1.8652-3.7342-2.4514-2.6132-0.97918-9.5814-1.2407-17.189-1.5438-1.4753-0.05877-5.608 0.13429-10.622 0.40066-0.39066 0.02075-0.88589-1.4133-1.2864-1.3917-0.33829 0.01821-0.58058 1.4919-0.9248 1.5106-5.2859 0.28675-11.211 0.62218-15.944 0.8221-0.99608 0.04208-1.7864-2.0964-2.6597-2.068-0.88244 0.02865-1.8464 2.224-2.5685 2.2351-0.95348 0.01468-1.7517 0.01253-2.3541-0.01054-2.7335 0-8.4201-0.0718-12.808-1.1416-0.24032-0.05859-1.4239-1.7221-1.6557-1.7869-1.3245-0.36985-1.5518 0.75956-2.4459 0.15593-8.0423-7.7527-8.029-8.7657-6.1162-10.352 6.6205 7.1443 8.2986 7.407 11.306 8.2836 3.2816 0.95669 8.1073 0.73325 9.5178 1.0301 14.185 0.56756 35.365-2.0534 51.648-0.1953 3.6563 0.472 5.3239 1.6067 7.1577 2.4855 0.77397 0.37092 1.4407 0.64096 1.4815 0.6001 0.17813-0.17813-1.999-3.6478-2.6809-4.5284-4.5779-4.0622-17.971-7.0943-20.323-7.4824 0.45469-1.1106-1.7496-4.1038-3.9615-5.02-1.9407-0.12961-1.8329-8.0159-5.792-4.7424-1.0043-2.0306-0.4489-0.02813-1.5101-2.1804 0.23586-1.6253 0.47846-1.436 2.1836-1.2116 2.002 2.8182 3.9734 3.5231 6.663 7.032 1.6308 2.4865 5.9262 4.9408 5.8332 1.4749 0.96661 0.30411 1.7241 2.8748 2.2512 3.0966 0.18873 0.0794-0.58286-1.4648-0.42357-1.3904 1.5273 0.71328 2.0274 1.2636 7.7559 2.9412 5.5506 1.904 9.5022 5.9699 11.059 7.6233 2.929 3.1107 5.8156 7.9713 7.4378 11.531l0.73932 1.6226-0.0691-1.1632c-0.15416-2.5941-3.9743-8.9182-9.9539-16.478-1.1141-1.4086-2.0257-2.6278-2.0257-2.7093 0-0.27458 0.84434-0.74261 1.3397-0.74261 0.87195 0 3.1205 1.5178 4.1424 2.7962 5.2141 6.5228 8.4715 11.835 9.9899 16.293 0.33976 0.99739 0.82023 2.0264 1.0677 2.2866 0.48334 0.61779 0.5262 0.39701 1.0274-0.10421l0.57742-0.57743-0.49383-1.7092c-1.1028-3.817-2.3058-6.1772-6.9432-13.623-3.5383-5.6808-3.5604-5.7438-2.0148-5.7438 0.66906 0 1.0768 0.17499 2.2196 0.95259 0.76996 0.52392 1.5362 1.0608 1.7028 1.193 0.48797 0.38742 4.3113 6.8705 5.6376 9.5594 0.67025 1.3589 1.5267 3.4688 1.9032 4.6886 0.998 3.2334 1.1066 3.3189 2.1928 2.3651 0.69512-0.61031 0.60161-0.72523 0.49053-1.762-0.25907-2.4183-1.6488-6.7585-3.2967-10.296-0.45956-0.98648-0.83556-1.9085-0.83556-2.049 0-0.14049 0.24873-0.5338 0.55273-0.87404 0.53213-0.59556 0.57301-0.60812 1.0976-0.33706 0.88748 0.45855 2.4096 2.1224 3.0584 3.3434 0.33254 0.62575 1.0966 2.7913 1.6978 4.8123 0.60127 2.021 1.1618 3.6746 1.2457 3.6746 0.0839 0 0.43656-0.35658 0.7837-0.79239 1.6019-2.0111 2.1828-2.2911 2.984-1.4382 0.51812 0.55152 0.52698 1.2728 0.0333 2.7078-0.51016 1.4828-0.49033 1.8936 0.10443 2.1646 0.26741 0.12184 0.611 0.22153 0.76355 0.22153 0.37506 0 0.34882 0.49605-0.0944 1.7843-1.3111 3.8107-4.1382 7.1729-8.6 10.228-4.2384 2.9017-9.7375 4.7155-14.953 4.9317-2.5869 0.10728-4.092-0.19298-5.3769-1.0727-0.98726-0.67594-1.0226-1.269-0.11232-1.8824 0.9945-0.6702 2.309-0.98327 5.0532-1.2036 8.5224-0.68414 14.972-3.781 19.653-9.4373 0.73473-0.88771 0.75129-0.93138 0.22147-0.58373-5.8134 3.8145-12.148 6.5994-16.946 7.4509-1.4397 0.25545-2.5088 0.30891-4.6768 0.23389-2.9778-0.10304-4.7556-0.46068-6.8132-1.3707-1.1379-0.50323-1.283-0.76396-1.1996-2.1548l0.0484-0.80794c-2.1938 0.42283-12.966 1.3241-17.164 1.8394-5.6716 0.69603-21.721 6.3381-24.552 7.0651-7.086 2.775-3.1117 2.405-4.6495-0.73473-2.1656-2.4402-1.6891 2.1492 4.9735-3.0245 8.6769-4.9364 35.827-8.8796 41.34-8.8034 2.9305 0.11786 5.2101 0.37109 5.2554 0.32586 0.18999-0.18999-2.0418-1.2622-3.3765-1.6222-2.6281-0.70878-2.8781-1.4121-14.425-1.5894-3.3467 0.36015-12.24 0.28286-26.372 2.1543-9.5258 1.3811-14.149 3.1047-16.021 4.5615-1.9395 1.4738-2.7717 1.3727-8.0916 8.0511-0.77543 0.91314-2.2682 2.0417-3.2583 1.5545-0.90795-0.96428-1.1367-1.429 0.3828-3.5145z" stroke-width=".18933"/>
    <path d="m177.55 110.93c8.8449-12.928 22.094-0.12631 14.299 9.39 0 0-13.52 14.443-14.38 15.971-0.93871-1.5235-14.451-16.118-14.451-16.118-7.5908-9.3633 5.7822-21.43 14.532-9.2429z"/>
    <path d="m168.55 105.22c-1.7724 0.16743-3.4088 0.8585-4.7428 1.9502-3.5574 2.9113-4.948 8.5006-1.0328 13.2l8e-3 0.012s2.9418 3.1767 6.1748 6.7204c3.233 3.5438 6.7684 7.4686 7.9133 8.9084 0.0788 0.0991 0.14719 0.19338 0.21027 0.2728 0.0315 0.0397 0.0605 0.0753 0.0996 0.11341 0.0384 0.0372 0.0729 0.11735 0.26732 0.11471 0.1223-2e-3 0.1683-0.0428 0.20134-0.066 0.0345-0.0244 0.0564-0.0456 0.079-0.068 0.0452-0.0449 0.0875-0.0941 0.13532-0.1518 0.0956-0.11572 0.20895-0.26308 0.3312-0.41782 1.2755-1.6144 4.7238-5.4129 7.8549-8.8073 1.5655-1.6972 3.0541-3.2967 4.1587-4.481 0.5523-0.59213 1.0089-1.0802 1.331-1.4252 0.16107-0.17249 0.28857-0.30934 0.37794-0.40543 0.0447-0.0479 0.0798-0.0858 0.10513-0.11339 0.0253-0.0275 0.0271-0.0275 0.0543-0.0606 3.9982-4.861 2.618-10.468-0.95928-13.364-1.7886-1.4482-4.2088-2.1239-6.6776-1.8185-2.3846 0.29506-4.7208 2.6489-6.9456 5.3014-2.217-2.6727-4.5516-5.0881-6.923-5.3756-0.6138-0.0743-1.4327-0.0956-2.0235-0.0397zm0.0606 0.58003c0.54831-0.0518 1.1911 0.0822 1.7609 0.15131 2.279 0.27627 4.5963 2.8322 6.7926 5.5992 0.24188 0.34485 0.38383 0.28657 0.6316-0.0219 2.2033-2.7451 4.5085-5.4076 6.8037-5.6916 2.2952-0.28401 4.4634 0.44263 6.1343 1.7928 3.343 2.7013 5.0804 7.6364 0.87132 12.496-0.0203 0.0234-8e-3 8e-3 -0.0323 0.0343-0.0241 0.0262-0.0587 0.0636-0.10308 0.11142-0.0887 0.0954-0.21627 0.23166-0.37725 0.40405-0.32197 0.34484-0.4404 0.70551-0.9929 1.2979-1.0763 1.4146-2.9319 2.9152-4.4989 4.6117-3.0299 2.9827-6.4102 6.5445-7.8858 8.8424-0.0887 0.13797-0.18471 0.23534-0.26112 0.33052-0.0341-0.0447-0.058-0.0769-0.0996-0.12923-3.7932-4.6891-5.1671-5.9583-7.9401-8.9392-3.0272-2.7323-5.9127-6.4577-6.1672-6.7122l-8.4e-4 -8.5e-4c-3.7163-4.4625-2.3715-9.6113 0.95102-12.33 1.2461-1.0198 2.7694-1.6906 4.4143-1.8457z" color="#000000" color-rendering="auto" dominant-baseline="auto" image-rendering="auto" shape-rendering="auto" solid-color="#000000" style="font-feature-settings:normal;font-variant-alternates:normal;font-variant-caps:normal;font-variant-ligatures:normal;font-variant-numeric:normal;font-variant-position:normal;isolation:auto;mix-blend-mode:normal;shape-padding:0;text-decoration-color:#000000;text-decoration-line:none;text-decoration-style:solid;text-indent:0;text-orientation:mixed;text-transform:none;white-space:normal"/>
   </g>
   <g fill="#fc0">
    <g fill-opacity=".23747">
     <g filter="url(#l3d_a)">
      <path d="m163.75 114.3v0.70885c-0.44543 0.62087-1.1769 1.2596-1.2454 1.8716-0.0148 0.61292 0.73327 1.279 1.2454 1.9138 0.11457 0.20269 0.13335 0.42931 0 0.69398l-2.2499-2.5362-0.0593-0.067z"/>
      <path d="m163.75 114.3c-0.16581 0.25579-0.0935 0.48357 0 0.70885l1.6272 1.8853-1.6272 1.9002v0.69398l2.3092-2.6031z"/>
      <path d="m163.75 115.01c-0.41974 1.2618-0.0519 2.5237 0 3.7855l1.6272-1.9002z"/>
      <path d="m166.93 110.2v0.70885l2.0036 2.1256-1.7486 1.8738v0.69396l-2.5643-2.817z"/>
      <path d="m166.93 110.2-0.0411 0.66359 1.9234 2.1445-1.6272 1.9002c-0.20001 0.23132-0.0636 0.46265 0 0.69396l2.3092-2.6031z"/>
      <path d="m170.55 107.06 1.487 2.1407-1.4985 1.8266-1.9227-2.2729z"/>
      <path d="m170.93 105.93-0.0623 1.3885c-0.82511 0.0132-1.4694 0.94927-2.1712 1.4846l1.8445 2.2235v0.69397l-2.6113-3.1294z"/>
      <path d="m165.35 107.96-0.36329 0.26722 0.28537 0.32621-1.5731 1.9874-0.36122-0.43119c-0.10039 0.1584-0.19892 0.31855-0.27039 0.50578l0.67989 0.77562 2.261-2.7593z"/>
      <path d="m164.98 108.22c-0.60531 0.41734-1.1427 1.1102-1.649 1.8824l0.36122 0.43119 1.6272-1.9002z"/>
     </g>
     <path d="m163.75 115.01v3.7855l-1.8181-1.8774z" filter="url(#l3d_av)"/>
     <g transform="matrix(.35183 0 0 .35183 222.07 83.802)" filter="url(#l3d_au)">
      <path d="m-126.9 130.99v2.0148l-4.625 5.3586 4.625 5.401v1.9724l-6.5636-7.3988z"/>
      <path d="m-126.9 130.99c-0.0451 0.66685-0.33077 1.3084 0 2.0148l4.625 5.3586-4.625 5.401c-0.12585 0.67147-0.60176 1.3818 0 1.9724l6.5636-7.3988z"/>
      <path d="m-126.9 133.01 4.625 5.3586-4.625 5.401-4.625-5.401z"/>
     </g>
     <path d="m180.83 126.03v0.70885l-1.6272 1.8853 1.6272 1.9002v0.69397l-2.3092-2.6031z" filter="url(#l3d_at)"/>
     <path d="m180.83 126.03c-2e-3 0.23713-0.0331 0.4865 0 0.70885l1.6272 1.8853-1.6272 1.9002c-0.0681 0.23869-1e-3 0.46281 0 0.69397l2.3092-2.6031z" filter="url(#l3d_as)"/>
     <path d="m180.83 126.74v3.7855l-1.6272-1.9002z" filter="url(#l3d_ar)"/>
     <path d="m180.83 126.74c0 1.2618-0.12793 2.5086 0 3.7855l1.6272-1.9002z" filter="url(#l3d_aq)"/>
     <g transform="matrix(.35183 0 0 .35183 218.59 79.946)" filter="url(#l3d_ap)">
      <path d="m-126.9 130.99v2.0148l-4.625 5.3586 4.625 5.401v1.9724l-6.5636-7.3988z"/>
      <path d="m-126.9 130.99c-0.0819 0.6443-0.27013 1.2531 0 2.0148l4.625 5.3586-4.625 5.401c-0.14213 0.6486-0.20798 1.302 0 1.9724l6.5636-7.3988z"/>
      <path d="m-126.9 133.01 4.625 5.3586-4.625 5.401-4.625-5.401z"/>
     </g>
     <g transform="matrix(.35183 0 0 .35183 215.2 76.083)" filter="url(#l3d_ao)">
      <path d="m-126.9 130.99v2.0148l-4.625 5.3586 4.625 5.401v1.9724l-6.5636-7.3988z"/>
      <path d="m-126.9 130.99c-0.64783 0.73049-0.29255 1.3698 0 2.0148l4.625 5.3586-4.625 5.401c-0.26033 0.68641-0.51496 1.3722 0 1.9724l6.5636-7.3988z"/>
      <path d="m-126.9 133.01v10.76l-4.625-5.401z"/>
      <path d="m-126.9 133.01c-0.93907 3.7626-0.43011 7.2537 0 10.76l4.625-5.401z"/>
     </g>
     <g transform="matrix(.35183 0 0 .35183 222.07 76.083)" filter="url(#l3d_an)">
      <path d="m-126.9 130.99v2.0148l-4.625 5.3586 4.625 5.401v1.9724l-6.5636-7.3988z"/>
      <path d="m-126.9 130.99c-0.0907 0.67807-0.31814 1.3659 0 2.0148l4.625 5.3586-4.625 5.401c-0.41805 0.60523-0.0244 1.3119 0 1.9724l6.5636-7.3988z"/>
      <path d="m-126.9 133.01 4.625 5.3586-4.625 5.401-4.625-5.401z"/>
     </g>
     <path d="m184.33 122.17v0.70888l-1.6272 1.8853 1.6272 1.9002v0.69397l-2.3092-2.6031z" filter="url(#l3d_am)"/>
     <path d="m184.33 122.17c-0.1034 0.26583-6e-3 0.47438 0 0.70888l1.6272 1.8853-1.6272 1.9002c-0.13214 0.27099-6e-3 0.46441 0 0.69397l2.3092-2.6031z" filter="url(#l3d_al)"/>
     <path d="m184.33 122.88v3.7855l-1.6272-1.9002z" filter="url(#l3d_ak)"/>
     <path d="m184.33 122.88c-0.10607 1.2666-9e-3 2.524 0 3.7855l1.6272-1.9002z" filter="url(#l3d_aj)"/>
     <g transform="matrix(.35183 0 0 .35183 225.48 72.19)" filter="url(#l3d_ai)">
      <path d="m-126.9 130.99v2.0148l-4.625 5.3586 4.625 5.401v1.9724l-6.5636-7.3988z"/>
      <path d="m-126.9 130.99c-0.0332 0.67062-0.15184 1.3387 0 2.0148l4.625 5.3586-4.625 5.401c-0.38472 0.50951-0.42557 1.1513 0 1.9724l6.5636-7.3988z"/>
      <path d="m-126.9 133.01v10.76l-4.625-5.401z"/>
      <path d="m-126.9 133.01c-0.75716 3.6437-0.48523 7.2097 0 10.76l4.625-5.401z"/>
     </g>
     <path d="m187.72 118.28v0.70886l-1.6272 1.8853 1.6272 1.9002v0.69396l-2.3092-2.6031z" filter="url(#l3d_ah)"/>
     <path d="m187.72 118.28v0.70886l1.6272 1.8853-1.6272 1.9002c-0.0773 0.22539-0.29786 0.43973 0 0.69396l2.3092-2.6031z" filter="url(#l3d_ag)"/>
     <path d="m187.72 118.99v3.7855l-1.6272-1.9002z" filter="url(#l3d_af)"/>
     <path d="m187.72 118.99c-0.32684 1.3786-0.0731 2.5498 0 3.7855l1.6272-1.9002z" filter="url(#l3d_ae)"/>
     <g transform="matrix(.35183 0 0 .35183 218.59 72.19)" filter="url(#l3d_ad)">
      <path d="m-126.9 130.99v2.0148l-4.625 5.3586 4.625 5.401c0.3499 0.70414 0.082 1.3259 0 1.9724l-6.5636-7.3988z"/>
      <path d="m-126.9 130.99c-0.22126 0.67159-0.14997 1.3432 0 2.0148l4.625 5.3586-4.625 5.401v1.9724l6.5636-7.3988z"/>
      <path d="m-126.9 133.01 4.625 5.3586-4.625 5.401-4.625-5.401z"/>
     </g>
     <path d="m167.14 118.23v0.70885l-1.6272 1.8853 1.6272 1.9002v0.69396l-2.3092-2.6031z" filter="url(#l3d_ac)"/>
     <path d="m167.14 118.23c-0.025 0.23856-0.13055 0.48446 0 0.70885l1.6272 1.8853-1.6272 1.9002c-0.0732 0.23132-0.194 0.46264 0 0.69396l2.3092-2.6031z" filter="url(#l3d_ab)"/>
     <path d="m167.14 118.94v3.7855l-1.6272-1.9002z" filter="url(#l3d_aa)"/>
     <path d="m167.14 118.94c-0.21483 1.3642-0.10202 2.5723 0 3.7855l1.6272-1.9002z" filter="url(#l3d_z)"/>
     <g transform="matrix(.35183 0 0 .35183 215.2 68.261)" filter="url(#l3d_y)">
      <path d="m-126.9 130.99v2.0148l-4.625 5.3586 4.625 5.401v1.9724l-6.5636-7.3988z"/>
      <path d="m-126.9 130.99c-0.12534 0.65369-0.45164 1.2787 0 2.0148l4.625 5.3586-4.625 5.401c-0.23525 0.68362-0.53292 1.3742 0 1.9724l6.5636-7.3988z"/>
      <path d="m-126.9 133.01c0.39252 3.6156 0.77095 7.2302 0 10.76l-4.625-5.401z"/>
      <path d="m-126.9 133.01v10.76l4.625-5.401z"/>
     </g>
     <path d="m174.02 110.49v0.70885l-1.6272 1.8853 1.6272 1.9002v0.69396l-2.3092-2.6031z" filter="url(#l3d_x)"/>
     <path d="m174.02 110.49c-9e-3 0.23731-0.0789 0.48133 0 0.70885l1.6272 1.8853-1.6272 1.9002v0.69396l2.3092-2.6031z" filter="url(#l3d_w)"/>
     <path d="m174.02 111.2v3.7855l-1.6272-1.9002z" filter="url(#l3d_v)"/>
     <path d="m174.02 111.2c-0.18003 1.2853-0.0587 2.5313 0 3.7855l1.6272-1.9002z" filter="url(#l3d_u)"/>
     <path d="m177.46 114.32v0.70883l-1.6272 1.8853 1.6272 1.9002v0.69397l-2.3092-2.6031z" filter="url(#l3d_t)"/>
     <path d="m177.46 114.32c5e-3 0.21814-0.16997 0.25753 0 0.70883l1.6272 1.8853-1.6272 1.9002v0.69397l2.3092-2.6031z" filter="url(#l3d_s)"/>
     <path d="m177.46 115.03 1.6272 1.8853-1.6272 1.9002-1.6272-1.9002z" filter="url(#l3d_r)"/>
     <path d="m180.83 110.41v0.70884l-1.6272 1.8853 1.6272 1.9002v0.69396l-2.3092-2.6031z" filter="url(#l3d_q)"/>
     <path d="m180.83 110.41c-0.0767 0.23629-0.0369 0.47256 0 0.70884l1.6272 1.8853-1.6272 1.9002c-0.11039 0.20924-0.0499 0.45265 0 0.69396l2.3092-2.6031z" filter="url(#l3d_p)"/>
     <path d="m180.83 111.12v3.7855l-1.6272-1.9002z" filter="url(#l3d_o)"/>
     <path d="m180.83 111.12c-0.28536 1.3617-0.0115 2.5277 0 3.7855l1.6272-1.9002z" filter="url(#l3d_n)"/>
     <g filter="url(#l3d_m)">
      <path d="m187.86 110.72c-0.33479 1.4016-0.67138 2.9238-0.15311 4.1855l1.9803-2.1908z"/>
      <path d="m187.91 109.98-0.20623 1.1401-1.6272 1.8853 1.6272 1.9002v0.69397l-2.3092-2.6031z"/>
      <path d="m187.91 109.98-0.22151 1.1299 1.6425 1.8955-1.6272 1.9002v0.69397l2.6789-3.0169z"/>
      <path d="m187.86 110.72-0.15311 4.1855-1.6272-1.9002z"/>
      <path d="m184.23 106.56 0.16455 0.76747-1.7918 1.8267 1.8158 1.4722-0.18858 1.122-2.3092-2.6031z"/>
      <path d="m184.23 106.56c0.0647 0.29069-0.0912 0.55011-0.16661 0.82096l1.7938 1.7732-1.6272 1.9002c-0.058 0.22302-0.0269 0.45878 0 0.69395l2.3092-2.6031z"/>
      <path d="m184.46 107.55c0.66573 1.4456 0.7649 1.7446-0.2269 3.5038l-1.6272-1.9002 1.2634-1.4637c0.21783-0.29203 0.4288-0.22184 0.59074-0.13994z"/>
      <path d="m184.1 107.51c-0.18885 1.3004-0.0984 2.5526 0.0928 3.7754l1.6623-2.131c-0.46485-0.53857-0.79657-1.0045-1.3374-1.5846-0.0902-0.0968-0.29498-0.11966-0.41776-0.0598z"/>
     </g>
    </g>
    <path d="m193.29 112.43 0.25708 1.7341-0.67224-1.1587z" fill-opacity=".23747" filter="url(#l3d_l)"/>
    <path d="m161.17 111.99-0.32428 2.4117 1.1541-1.3942z" fill-opacity=".23747" filter="url(#l3d_k)"/>
    <path d="m170.37 106.35 0.18469 0.71217c0.8251-0.0132 0.1759 0.81514 1.3664 2.1432l-1.4688 1.7048 0.0903 0.81327 2.3093-2.6031c-0.82716-0.9235-1.6368-1.8523-2.482-2.7704z" fill-opacity=".23747" filter="url(#l3d_j)"/>
    <g fill-opacity=".23747">
     <g transform="matrix(.35183 0 0 .35183 228.88 68.278)" filter="url(#l3d_i)">
      <path d="m-126.9 130.99v2.0148l-4.625 5.3586 4.625 5.401v1.9724l-6.5636-7.3988z"/>
      <path d="m-126.9 130.99c-0.19523 0.67159-0.0147 1.3432 0 2.0148l4.625 5.3586-4.625 5.401c-0.32903 0.66923-3.7e-4 1.315 0 1.9724l6.5636-7.3988z"/>
      <path d="m-126.9 133.01v10.76l-4.625-5.401z"/>
      <path d="m-126.9 133.01c-0.46409 3.5304-0.60938 7.0994 0 10.76l4.625-5.401z"/>
     </g>
     <path d="m191.04 114.33v0.70885l-1.6272 1.8853 1.6272 1.9002v0.69398l-2.3092-2.6031z" filter="url(#l3d_h)"/>
     <path d="m191.04 114.33c-0.0202 0.2325-0.13773 0.44675 0 0.70885l1.6272 1.8853-1.6272 1.9002c-0.2896 0.2796-0.047 0.47048 0 0.69398l2.0625-2.3249c0.10876-0.164 0.21091-0.3303 0.18277-0.53998z" filter="url(#l3d_g)"/>
     <path d="m191.04 115.04v3.7855l-1.6272-1.9002z" filter="url(#l3d_f)"/>
     <path d="m191.04 115.04c-0.22672 1.2744-0.32784 2.5419 0 3.7855l1.6272-1.9002z" filter="url(#l3d_e)"/>
     <path d="m162.19 112.35c-0.23903 0.78859-0.42202 1.1795-0.42202 1.9601l0.91278-1.3149z" filter="url(#l3d_d)"/>
    </g>
    <path d="m190.14 107.9c0.55744 0.60063 1.3303 1.2804 1.9971 2.2702l-0.80372 0.98367-2.3387-1.8697z" fill-opacity=".23747" filter="url(#l3d_c)"/>
    <path d="m187.44 106.83-0.34878 0.35824-0.51026-0.57449c0.25095 0.0275 0.59528 0.16816 0.85904 0.21625z" fill-opacity=".23747" filter="url(#l3d_b)"/>
   </g>
  </g>
 </g>
</svg>
